<?xml version="1.0" encoding="UTF-8" standalone="no"?>
<svg
   xmlns:dc="http://purl.org/dc/elements/1.1/"
   xmlns:cc="http://creativecommons.org/ns#"
   xmlns:rdf="http://www.w3.org/1999/02/22-rdf-syntax-ns#"
   xmlns:svg="http://www.w3.org/2000/svg"
   xmlns="http://www.w3.org/2000/svg"
   viewBox="0 0 1632 1056"
   height="1056"
   width="1632"
   xml:space="preserve"
   id="svg2"
   version="1.1"><metadata
     id="metadata8"><rdf:RDF><cc:Work
         rdf:about=""><dc:format>image/svg+xml</dc:format><dc:type
           rdf:resource="http://purl.org/dc/dcmitype/StillImage" /></cc:Work></rdf:RDF></metadata><defs
     id="defs6"><clipPath
       id="clipPath18"
       clipPathUnits="userSpaceOnUse"><path
         id="path16"
         d="M 0,792 H 1224 V 0 H 0 Z" /></clipPath></defs><g
     transform="matrix(1.3333333,0,0,-1.3333333,0,1056)"
     id="g10"><g
       id="g12"><g
         clip-path="url(#clipPath18)"
         id="g14"><g
           transform="translate(372.1445,395.6235)"
           id="g20"><path
             id="path22"
             style="fill:#FDB515;fill-opacity:0.2;fill-rule:nonzero;stroke:none"
             d="m 0,0 c -1.246,-0.212 -2.217,-1.196 -2.416,-2.446 h -99.188 c -0.071,0.442 -0.23,0.853 -0.473,1.206 l 48.378,48.437 c 0.476,-0.326 1.051,-0.518 1.671,-0.518 1.636,0 2.965,1.324 2.965,2.963 0,0.622 -0.194,1.197 -0.521,1.674 L 0,100.959 Z m -102.815,-0.496 c -0.483,0.342 -1.07,0.546 -1.706,0.546 -1.637,0 -2.963,-1.326 -2.963,-2.963 0,-0.638 0.205,-1.225 0.547,-1.709 l -48.373,-48.433 c -0.354,0.249 -0.763,0.42 -1.208,0.496 v 99.288 c 1.238,0.211 2.206,1.18 2.415,2.417 h 99.161 c 0.076,-0.446 0.247,-0.857 0.498,-1.211 z m -54.703,-52.064 c -0.443,-0.075 -0.852,-0.247 -1.205,-0.497 L -259.589,47.935 c 0.251,0.354 0.422,0.765 0.497,1.211 h 64.186 c 0.237,-1.4 1.445,-2.467 2.913,-2.467 1.466,0 2.675,1.067 2.912,2.467 h 29.152 c 0.21,-1.236 1.179,-2.206 2.411,-2.417 z m -103.008,104.756 33.048,89.127 c 0.173,-0.032 0.35,-0.054 0.532,-0.054 0.181,0 0.357,0.022 0.529,0.053 l 19.519,-52.767 5.811,-15.732 c -0.727,-0.54 -1.206,-1.398 -1.206,-2.374 0,-1.639 1.328,-2.965 2.961,-2.965 0.072,0 0.139,0.016 0.209,0.021 l 5.654,-15.307 c -0.746,-0.432 -1.285,-1.171 -1.436,-2.052 h -64.188 c -0.151,0.879 -0.689,1.618 -1.433,2.05 m 27.007,123.633 c 0.584,0.541 0.955,1.307 0.955,2.167 0,1.283 -0.822,2.366 -1.964,2.777 l -15.774,71.104 c 0.502,0.23 0.931,0.591 1.236,1.046 l 62.032,-39.54 c -0.241,-0.429 -0.391,-0.917 -0.391,-1.444 0,-1.064 0.567,-1.99 1.409,-2.512 l -39.812,-62.453 c -0.346,0.141 -0.722,0.222 -1.118,0.222 -0.084,0 -0.162,-0.018 -0.244,-0.025 z m -3.682,4.61 -99.628,99.505 c 0.086,0.121 0.157,0.252 0.224,0.385 l 82.247,-24.921 c -0.08,-0.269 -0.136,-0.548 -0.136,-0.842 0,-1.637 1.327,-2.963 2.962,-2.963 0.086,0 0.167,0.018 0.252,0.025 l 15.608,-70.684 c -0.565,-0.027 -1.091,-0.204 -1.529,-0.505 m -1.156,-3.275 h -97.974 c -0.211,1.233 -1.179,2.202 -2.414,2.412 v 99.163 c 0.445,0.076 0.855,0.247 1.209,0.498 l 99.622,-99.5 c -0.358,-0.489 -0.576,-1.088 -0.576,-1.741 0,-0.291 0.054,-0.567 0.133,-0.832 m 53.734,31.829 -14.48,-135.604 c -0.077,0.006 -0.151,0.023 -0.229,0.023 -0.297,0 -0.578,-0.058 -0.848,-0.139 l -5.317,14.373 -19.96,54.038 c 0.878,0.515 1.475,1.457 1.475,2.549 0,0.863 -0.375,1.632 -0.963,2.173 l 39.884,62.631 c 0.142,-0.029 0.29,-0.037 0.438,-0.044 M 1,0 v 102.167 l -0.854,0.354 -50.432,-50.492 c -0.49,0.358 -1.089,0.576 -1.742,0.576 -1.462,0 -2.673,-1.063 -2.913,-2.459 h -99.163 c -0.239,1.396 -1.447,2.459 -2.914,2.459 -1.46,0 -2.67,-1.063 -2.91,-2.459 h -29.154 c -0.24,1.396 -1.448,2.459 -2.911,2.459 -0.185,0 -0.364,-0.022 -0.54,-0.054 l -5.609,15.185 c 1.044,0.458 1.775,1.498 1.775,2.713 0,1.205 -0.722,2.238 -1.756,2.7 l 14.519,135.968 c 1.215,0.369 2.106,1.486 2.106,2.822 0,1.637 -1.328,2.963 -2.963,2.963 -0.745,0 -1.417,-0.284 -1.938,-0.738 l -62.266,39.688 c 0.058,0.23 0.097,0.466 0.097,0.714 0,1.638 -1.327,2.963 -2.964,2.963 -0.978,0 -1.839,-0.481 -2.379,-1.213 l -82.406,24.97 c 0.014,0.121 0.036,0.24 0.036,0.365 0,1.639 -1.326,2.964 -2.964,2.964 -1.635,0 -2.962,-1.325 -2.962,-2.964 0,-1.464 1.066,-2.673 2.462,-2.912 v -99.163 c -1.396,-0.239 -2.462,-1.447 -2.462,-2.912 0,-1.637 1.327,-2.963 2.962,-2.963 1.466,0 2.675,1.065 2.914,2.463 h 98.49 c 0.543,-0.685 1.371,-1.132 2.313,-1.132 0.394,0 0.769,0.08 1.113,0.22 l 6.254,-28.322 c -1.029,-0.464 -1.749,-1.493 -1.749,-2.697 0,-1.101 0.606,-2.049 1.496,-2.561 L -261.461,52.55 c -0.177,0.033 -0.357,0.055 -0.544,0.055 -1.636,0 -2.962,-1.326 -2.962,-2.963 0,-1.639 1.326,-2.963 2.962,-2.963 0.638,0 1.225,0.206 1.709,0.548 L -159.43,-53.764 c -0.342,-0.484 -0.549,-1.07 -0.549,-1.708 0,-1.637 1.329,-2.963 2.961,-2.963 1.64,0 2.965,1.326 2.965,2.963 0,0.639 -0.206,1.226 -0.55,1.71 l 48.374,48.432 c 0.483,-0.342 1.07,-0.547 1.708,-0.547 1.455,0 2.658,1.048 2.91,2.431 h 99.202 c 0.251,-1.383 1.454,-2.431 2.909,-2.431 1.635,0 2.963,1.326 2.963,2.964 C 3.463,-1.448 2.396,-0.239 1,0" /></g><g
           transform="translate(779.5732,400.0815)"
           id="g24"><path
             id="path26"
             style="fill:#FDB515;fill-opacity:0.2;fill-rule:nonzero;stroke:none"
             d="m 0,0 -225.366,-57.446 c -0.148,0.95 -0.5,1.883 -1.086,2.726 -1.606,2.311 -4.434,3.26 -7.01,2.595 l -57.943,227.321 c 0.259,0.133 0.515,0.278 0.761,0.449 0.146,0.102 0.283,0.212 0.418,0.323 l 79.037,-46.346 50.418,-29.894 c -0.867,-2.009 -0.714,-4.404 0.625,-6.333 2.063,-2.969 6.143,-3.703 9.112,-1.641 0.556,0.387 1.034,0.845 1.43,1.353 L 0.962,3.833 C 0.25,2.682 -0.079,1.339 0,0 m -294.148,187.555 4.269,130.442 c 0.617,0.085 1.227,0.258 1.812,0.524 l 129.609,-215.987 c -0.015,-0.011 -0.031,-0.019 -0.047,-0.03 -0.372,-0.258 -0.709,-0.548 -1.01,-0.864 l -50.63,29.688 -78.501,46.545 c 1.156,2.109 1.108,4.775 -0.356,6.883 -1.224,1.761 -3.157,2.728 -5.146,2.799 m -3.965,-1.16 c -0.187,-0.13 -0.366,-0.269 -0.535,-0.415 l -24.394,29.254 c 1.675,2.199 1.832,5.31 0.17,7.702 -1.89,2.719 -5.469,3.556 -8.337,2.093 l -82.472,98.903 c 0.496,0.796 0.806,1.685 0.93,2.602 l 115.463,-2.671 c 0.101,-1.086 0.472,-2.162 1.139,-3.122 0.973,-1.4 2.397,-2.296 3.939,-2.643 l -3.977,-130.791 c -0.67,-0.193 -1.322,-0.492 -1.926,-0.912 m -36.451,31.107 -167.918,-70.81 c -0.147,0.303 -0.311,0.6 -0.509,0.885 -0.402,0.578 -0.882,1.069 -1.414,1.474 l 83.937,171.924 c 1.671,-0.321 3.464,0.002 4.97,1.05 0.066,0.045 0.124,0.098 0.188,0.145 l 82.312,-98.467 c -1.579,-1.662 -2.15,-4.026 -1.566,-6.201 M 11.903,4.125 C 9.841,7.094 5.761,7.829 2.792,5.764 2.615,5.641 2.447,5.51 2.286,5.374 l -150.921,89.483 c 0.716,1.939 0.51,4.183 -0.759,6.009 -1.656,2.384 -4.612,3.322 -7.25,2.533 L -286.395,319.62 c 2.417,2.174 2.899,5.854 0.998,8.594 -2.064,2.967 -6.144,3.701 -9.111,1.637 -1.416,-0.984 -2.318,-2.428 -2.656,-3.99 l -115.627,2.675 c -0.159,0.907 -0.505,1.795 -1.065,2.601 -2.063,2.967 -6.144,3.701 -9.11,1.637 -2.97,-2.063 -3.705,-6.141 -1.642,-9.109 0.602,-0.867 1.379,-1.537 2.246,-2.008 L -506.167,150 c -1.922,0.685 -4.132,0.469 -5.935,-0.785 -2.969,-2.062 -3.704,-6.14 -1.641,-9.109 2.063,-2.969 6.143,-3.703 9.111,-1.641 2.103,1.462 3.077,3.933 2.739,6.306 l 168.14,70.902 c 0.044,-0.069 0.082,-0.14 0.129,-0.209 2.064,-2.968 6.144,-3.703 9.111,-1.639 0.009,0.006 0.016,0.013 0.026,0.019 l 24.526,-29.412 c -1.311,-2.146 -1.321,-4.95 0.207,-7.147 1.489,-2.144 4.03,-3.115 6.444,-2.717 l 57.99,-227.498 c -0.081,-0.052 -0.164,-0.097 -0.243,-0.152 -2.969,-2.064 -3.703,-6.142 -1.641,-9.111 2.063,-2.969 6.143,-3.703 9.112,-1.639 1.515,1.053 2.445,2.633 2.72,4.321 L 0.423,-1.956 c 0.184,-0.481 0.422,-0.948 0.728,-1.389 2.063,-2.969 6.143,-3.703 9.112,-1.641 2.968,2.065 3.703,6.143 1.64,9.111" /></g><g
           transform="translate(1201.1416,130.7568)"
           id="g28"><path
             id="path30"
             style="fill:#FDB515;fill-opacity:0.2;fill-rule:nonzero;stroke:none"
             d="m 0,0 c -0.001,-0.164 0.011,-0.325 0.021,-0.487 l -142.024,-30.502 c -0.999,2.449 -3.394,4.182 -6.205,4.202 -0.444,0.003 -0.878,-0.04 -1.299,-0.119 l -27.691,128.947 -2.897,13.555 c 1.241,0.372 2.329,1.093 3.157,2.048 L 0.598,2.727 C 0.222,1.894 0.007,0.973 0,0 M -154.484,-30.947 -214.65,8.086 c 0.283,0.746 0.445,1.551 0.445,2.395 0,3.729 -3.022,6.75 -6.75,6.75 -1.858,0 -3.54,-0.751 -4.761,-1.966 L -331.34,83.789 c 0.302,0.767 0.473,1.598 0.473,2.471 0,0.387 -0.04,0.764 -0.103,1.134 l 143.511,30.664 c 1.218,-1.647 3.161,-2.726 5.364,-2.745 l 3.238,-15.072 27.325,-127.883 c -1.32,-0.735 -2.366,-1.898 -2.952,-3.305 m -73.032,42.992 -209.898,17.926 c -0.036,0.921 -0.254,1.792 -0.623,2.582 l 4.643,2.447 90.314,47.307 c 1.226,-1.692 3.214,-2.797 5.463,-2.797 1.997,0 3.786,0.872 5.022,2.251 l 105.5,-68.487 c -0.178,-0.391 -0.319,-0.802 -0.421,-1.229 m -216.634,24.41 c -3.727,0 -6.75,-3.021 -6.75,-6.75 0,-0.541 0.07,-1.064 0.19,-1.568 l -81.041,-42.702 c -0.649,0.881 -1.506,1.597 -2.5,2.079 l 28.151,90.665 c 0.544,-0.142 1.112,-0.225 1.7,-0.225 3.728,0 6.75,3.023 6.75,6.75 0,2.921 -1.859,5.4 -4.454,6.341 l 11.284,36.34 c 0.687,-0.236 1.422,-0.37 2.189,-0.37 2.579,0 4.819,1.447 5.955,3.573 l 138.444,-42.985 c -0.088,-0.435 -0.135,-0.883 -0.135,-1.343 0,-0.675 0.101,-1.325 0.286,-1.94 l -90.509,-47.69 -4.568,-2.393 c -1.235,1.36 -3.011,2.218 -4.992,2.218 m -93.035,-48.264 c -3.726,0 -6.75,-3.021 -6.75,-6.75 0,-2.42 1.28,-4.538 3.195,-5.729 l -11.402,-36.718 c -2.278,-0.145 -4.246,-1.418 -5.355,-3.269 l -145.021,45.028 191.979,101.156 c 0.454,-0.994 1.14,-1.857 1.991,-2.522 l -28.322,-91.211 c -0.105,0.005 -0.208,0.015 -0.315,0.015 m -170.521,-7.82 c -1.238,1.495 -3.108,2.448 -5.202,2.448 -2.219,0 -4.182,-1.076 -5.413,-2.729 l -90.885,58.427 c 0.531,0.682 0.933,1.469 1.17,2.326 l 113.291,-0.411 c 0.919,-2.636 3.42,-4.53 6.368,-4.53 2.96,0 5.468,1.908 6.379,4.558 l 87.18,-0.316 z m -106.827,69.031 c -3.647,0 -6.612,-2.895 -6.738,-6.511 l -83.786,0.303 c -0.053,0.674 -0.206,1.319 -0.443,1.922 l 110.307,58.405 c 1.227,-1.687 3.211,-2.789 5.457,-2.789 1.909,0 3.629,0.795 4.856,2.069 l 90.13,-57.941 c -0.24,-0.693 -0.377,-1.433 -0.377,-2.208 0,-0.048 0.006,-0.096 0.007,-0.145 l -112.676,0.409 c -0.14,3.605 -3.098,6.486 -6.737,6.486 m -92.185,-2.294 c -1.237,1.404 -3.043,2.294 -5.061,2.294 -3.727,0 -6.75,-3.022 -6.75,-6.75 0,-0.572 0.079,-1.125 0.213,-1.655 l -78.382,-41.3 29.472,94.915 c 0.085,-0.003 0.168,-0.012 0.253,-0.012 3.729,0 6.75,3.022 6.75,6.75 0,2.399 -1.255,4.501 -3.141,5.698 l 11.431,36.813 c 0.516,-0.126 1.052,-0.2 1.607,-0.2 2.495,0 4.668,1.357 5.836,3.369 l 143.088,-44.429 z m -106.211,-90.595 c -0.158,0.011 -0.315,0.024 -0.475,0.024 -2.848,0 -5.279,-1.766 -6.27,-4.261 l -139.007,43.162 c 0.068,0.382 0.109,0.773 0.109,1.174 0,0.99 -0.218,1.926 -0.599,2.772 l 186.541,98.291 c 0.681,-1.046 1.644,-1.887 2.78,-2.424 z M 6.794,6.705 C 4.757,6.719 2.929,5.824 1.683,4.405 L -175.864,119.33 c 0.365,0.822 0.573,1.731 0.58,2.688 0.024,3.728 -2.978,6.77 -6.705,6.794 -3.727,0.025 -6.771,-2.977 -6.796,-6.705 -0.005,-0.774 0.127,-1.516 0.362,-2.211 L -331.599,89.304 c -1.113,2.197 -3.386,3.706 -6.018,3.706 -2.561,0 -4.788,-1.426 -5.932,-3.527 l -138.458,42.993 c 0.08,0.418 0.126,0.847 0.126,1.289 0,3.728 -3.021,6.75 -6.75,6.75 -3.726,0 -6.75,-3.022 -6.75,-6.75 0,-2.233 1.089,-4.206 2.76,-5.435 l -11.456,-36.892 c -0.108,0.004 -0.214,0.016 -0.323,0.016 -3.727,0 -6.75,-3.021 -6.75,-6.75 0,-0.281 0.022,-0.557 0.055,-0.828 l -79.234,-41.749 -91.308,0.332 c 0.002,0.064 0.01,0.128 0.01,0.193 0,3.728 -3.021,6.75 -6.75,6.75 -2.234,0 -4.21,-1.09 -5.439,-2.764 l -89.904,57.795 c 0.466,0.917 0.734,1.951 0.734,3.049 0,3.729 -3.021,6.75 -6.75,6.75 -3.727,0 -6.75,-3.021 -6.75,-6.75 0,-0.766 0.133,-1.5 0.369,-2.187 l -2.67,-1.413 -144.966,45.014 c 0.112,0.488 0.177,0.994 0.177,1.515 0,3.728 -3.021,6.75 -6.75,6.75 -3.727,0 -6.75,-3.022 -6.75,-6.75 0,-2.46 1.32,-4.605 3.285,-5.785 l -11.416,-36.768 c -0.564,0.153 -1.154,0.242 -1.766,0.242 -3.727,0 -6.75,-3.022 -6.75,-6.75 0,-0.644 0.096,-1.263 0.264,-1.853 L -1160.262,1.07 c -1.237,1.403 -3.042,2.292 -5.06,2.292 -3.727,0 -6.75,-3.021 -6.75,-6.75 0,-3.727 3.023,-6.75 6.75,-6.75 2.622,0 4.888,1.497 6.007,3.68 l 139.188,-43.22 c -0.014,-0.177 -0.027,-0.354 -0.027,-0.535 0,-3.727 3.023,-6.75 6.75,-6.75 3.729,0 6.75,3.023 6.75,6.75 0,2.869 -1.792,5.314 -4.316,6.29 l 12.563,40.46 80.868,42.609 c 1.185,-1.943 3.318,-3.244 5.76,-3.244 3.228,0 5.921,2.266 6.588,5.293 l 84.149,-0.305 c 0.776,-2.872 3.393,-4.988 6.509,-4.988 1.425,0 2.744,0.444 3.833,1.197 l 91.434,-58.779 c -0.249,-0.705 -0.392,-1.46 -0.392,-2.251 0,-3.727 3.023,-6.75 6.75,-6.75 3.729,0 6.75,3.023 6.75,6.75 0,0.916 -0.185,1.789 -0.515,2.586 l 1.541,0.817 146.872,-45.606 c -0.126,-0.513 -0.199,-1.048 -0.199,-1.6 0,-3.729 3.023,-6.75 6.75,-6.75 3.729,0 6.75,3.021 6.75,6.75 0,3.172 -2.192,5.828 -5.144,6.549 l 11.211,36.103 c 0.546,-0.143 1.117,-0.227 1.707,-0.227 3.729,0 6.75,3.023 6.75,6.75 0,0.782 -0.139,1.528 -0.382,2.225 l 80.862,42.607 c 1.176,-1.984 3.332,-3.318 5.805,-3.318 3.131,0 5.756,2.136 6.519,5.027 l 209.947,-17.929 c 0.223,-3.527 3.147,-6.322 6.729,-6.322 2.165,0 4.087,1.024 5.322,2.609 l 60.657,-39.353 c -0.011,-0.159 -0.026,-0.318 -0.027,-0.48 -0.025,-3.726 2.979,-6.769 6.705,-6.793 3.729,-0.025 6.77,2.977 6.794,6.704 0.001,0.219 -0.01,0.435 -0.028,0.648 L 0.445,-2.442 c 0.962,-2.528 3.394,-4.335 6.259,-4.353 3.729,-0.024 6.771,2.978 6.795,6.705 0.025,3.729 -2.977,6.771 -6.705,6.795" /></g><g
           transform="translate(1043.0566,610.9531)"
           id="g32"><path
             id="path34"
             style="fill:#FDB515;fill-opacity:0.2;fill-rule:nonzero;stroke:none"
             d="m 0,0 c -0.684,0.845 -1.656,1.435 -2.777,1.613 l 0.445,5.818 4.811,58.488 c 1.538,0.133 2.843,1.029 3.547,2.319 L 93.128,28.273 c -0.137,-0.429 -0.231,-0.878 -0.231,-1.353 0,-0.112 0.025,-0.217 0.034,-0.327 z m -18.645,64.12 c 1.539,0.716 2.611,2.264 2.611,4.071 0,2.486 -2.015,4.5 -4.5,4.5 -0.01,0 -0.02,-0.003 -0.029,-0.003 l -9.928,43.322 -1.998,9.041 31.624,-51.304 c -0.939,-0.825 -1.543,-2.02 -1.543,-3.367 0,-1.98 1.286,-3.641 3.061,-4.244 L -3.84,7.402 -4.236,2.575 Z m -6.389,4.071 c 0,-0.764 0.209,-1.473 0.546,-2.104 l -118.79,-119.828 c -0.724,0.497 -1.598,0.79 -2.542,0.79 -0.498,0 -0.969,-0.1 -1.416,-0.25 l -37.532,68.105 c 1.042,0.824 1.724,2.085 1.724,3.516 0,0.765 -0.209,1.474 -0.546,2.105 l 148.341,109.53 3.314,-14.464 5.046,-22.832 4.769,-20.37 c -1.699,-0.643 -2.914,-2.273 -2.914,-4.198 m 8.36,-361.421 c -0.441,-0.341 -0.816,-0.757 -1.106,-1.237 l -163.304,89.088 c 0.12,0.405 0.204,0.826 0.204,1.271 0,1.977 -1.285,3.638 -3.058,4.242 l -2.8,213.867 c 0.198,0.036 0.387,0.097 0.576,0.158 l 37.583,-68.079 c -1.053,-0.824 -1.741,-2.091 -1.741,-3.531 0,-2.486 2.014,-4.5 4.5,-4.5 0.542,0 1.053,0.111 1.535,0.286 z M 97.397,31.42 c -1.471,0 -2.766,-0.717 -3.587,-1.81 L 6.52,69.662 c 0.038,0.235 0.072,0.472 0.072,0.718 0,2.484 -2.015,4.5 -4.5,4.5 -0.598,0 -1.165,-0.122 -1.688,-0.334 l -33.944,55.069 -0.064,-0.025 -0.438,1.915 -1.177,0.436 -149.283,-110.224 c -0.802,0.741 -1.865,1.203 -3.042,1.203 -2.485,0 -4.5,-2.015 -4.5,-4.5 0,-2.247 1.652,-4.094 3.806,-4.43 l 2.797,-213.605 c -2.456,-0.033 -4.439,-2.029 -4.439,-4.493 0,-2.486 2.015,-4.5 4.5,-4.5 1.503,0 2.825,0.744 3.644,1.877 l 163.39,-89.135 c -0.061,-0.296 -0.094,-0.603 -0.094,-0.917 0,-2.486 2.014,-4.5 4.5,-4.5 2.484,0 4.5,2.014 4.5,4.5 0,2.485 -2.016,4.5 -4.5,4.5 -0.495,0 -0.962,-0.1 -1.407,-0.246 l -127.637,231.611 c 1.007,0.825 1.664,2.063 1.664,3.467 0,0.999 -0.337,1.913 -0.888,2.66 L -23.567,64.887 c 0.801,-0.736 1.86,-1.196 3.033,-1.196 0.15,0 0.293,0.03 0.44,0.045 L -5.458,1.211 c -1.491,-0.733 -2.527,-2.253 -2.527,-4.026 0,-2.485 2.015,-4.5 4.5,-4.5 2.486,0 4.5,2.015 4.5,4.5 0,0.517 -0.106,1.006 -0.266,1.469 L 93.272,25.13 c 0.693,-1.593 2.278,-2.71 4.125,-2.71 2.485,0 4.5,2.016 4.5,4.5 0,2.485 -2.015,4.5 -4.5,4.5" /></g></g></g></g></svg>